<svg id="Group_2354" data-name="Group 2354" xmlns="http://www.w3.org/2000/svg" width="45.238" height="45.238" viewBox="0 0 45.238 45.238">
  <path id="Path_6510" data-name="Path 6510" d="M22.619,0A22.619,22.619,0,1,1,0,22.619,22.619,22.619,0,0,1,22.619,0Z" transform="translate(0)" fill="#1f9e16"/>
  <path id="ok-14" d="M352.519,382.516,338.94,395.492s-.01,0-.014.01,0,.01-.01.013a1.739,1.739,0,0,1-.368.227,1.447,1.447,0,0,1-.18.109,1.8,1.8,0,0,1-.634.117,1.77,1.77,0,0,1-.641-.12c-.068-.027-.122-.082-.187-.115a1.636,1.636,0,0,1-.365-.228s-.005-.01-.009-.013-.01,0-.013-.01l-6.678-6.488a1.542,1.542,0,0,1,.034-2.267,1.766,1.766,0,0,1,2.4.032l5.473,5.316,12.363-11.813a1.766,1.766,0,0,1,2.4-.013A1.544,1.544,0,0,1,352.519,382.516Z" transform="translate(-318.566 -365.258)" fill="#fff"/>
</svg>
