<svg xmlns="http://www.w3.org/2000/svg" xmlns:xlink="http://www.w3.org/1999/xlink" width="49.347" height="49.347" viewBox="0 0 49.347 49.347">
  <defs>
    <filter id="Path_16340" x="24.978" y="4.125" width="20.194" height="20.187" filterUnits="userSpaceOnUse">
      <feOffset dy="3" input="SourceAlpha"/>
      <feGaussianBlur stdDeviation="3" result="blur"/>
      <feFlood flood-opacity="0.161"/>
      <feComposite operator="in" in2="blur"/>
      <feComposite in="SourceGraphic"/>
    </filter>
    <filter id="Path_16341" x="11.334" y="9.85" width="28.148" height="29.535" filterUnits="userSpaceOnUse">
      <feOffset dy="3" input="SourceAlpha"/>
      <feGaussianBlur stdDeviation="3" result="blur-2"/>
      <feFlood flood-opacity="0.161"/>
      <feComposite operator="in" in2="blur-2"/>
      <feComposite in="SourceGraphic"/>
    </filter>
    <filter id="Path_16342" x="0" y="0" width="49.347" height="49.347" filterUnits="userSpaceOnUse">
      <feOffset dy="3" input="SourceAlpha"/>
      <feGaussianBlur stdDeviation="3" result="blur-3"/>
      <feFlood flood-opacity="0.161"/>
      <feComposite operator="in" in2="blur-3"/>
      <feComposite in="SourceGraphic"/>
    </filter>
  </defs>
  <g id="play-icon" transform="translate(-81.529 -667.885)">
    <g transform="matrix(1, 0, 0, 1, 81.53, 667.88)" filter="url(#Path_16340)">
      <path id="Path_16340-2" data-name="Path 16340" d="M772.7,186.694a1.1,1.1,0,1,0,1.1-1.094A1.1,1.1,0,0,0,772.7,186.694Z" transform="translate(-738.72 -175.47)" fill="#fff"/>
    </g>
    <g transform="matrix(1, 0, 0, 1, 81.53, 667.88)" filter="url(#Path_16341)">
      <path id="Path_16341-2" data-name="Path 16341" d="M384.794,352.835a1.05,1.05,0,0,0,.552-.153l7.873-4.585a1.1,1.1,0,0,0,.63-.995,1.088,1.088,0,0,0-.545-.947l-7.7-4.483a1.075,1.075,0,0,0-.814-.371,1.088,1.088,0,0,0-1.083,1.094.372.372,0,0,0,0,.061l-.014.007.017,9.164c0,.037-.007.075-.007.116A1.09,1.09,0,0,0,384.794,352.835Z" transform="translate(-363.37 -325.45)" fill="#fff"/>
    </g>
    <g transform="matrix(1, 0, 0, 1, 81.53, 667.88)" filter="url(#Path_16342)">
      <path id="Path_16342-2" data-name="Path 16342" d="M93.9,72.976a1.141,1.141,0,0,0-1.012-.623,1.122,1.122,0,0,0-.966,1.7l0,0a13.419,13.419,0,1,1-5.867-5.843l.007-.014a1.124,1.124,0,1,0,1-2.01A15.661,15.661,0,1,0,93.9,72.976Z" transform="translate(-55.3 -58.5)" fill="#fff"/>
    </g>
  </g>
</svg>
