<svg xmlns="http://www.w3.org/2000/svg" width="45.238" height="45.238" viewBox="0 0 45.238 45.238">
  <g id="Group_2855" data-name="Group 2855" transform="translate(-643 -276)">
    <g id="Group_2354" data-name="Group 2354" transform="translate(643 276)">
      <path id="Path_336" data-name="Path 336" d="M22.619,0A22.619,22.619,0,1,1,0,22.619,22.619,22.619,0,0,1,22.619,0Z" fill="#d93232"/>
    </g>
    <path id="close-30" d="M123.445,121.574l7.313-7.311a1.324,1.324,0,1,0-1.873-1.873l-7.313,7.311-7.311-7.313a1.325,1.325,0,0,0-1.874,1.873l7.312,7.313-7.313,7.312a1.324,1.324,0,1,0,1.873,1.873l7.313-7.311,7.312,7.313a1.325,1.325,0,0,0,1.874-1.873Z" transform="translate(544.047 177.045)" fill="#fff" stroke="#fff" stroke-width="2"/>
  </g>
</svg>
